<svg width="280" height="50" xmlns="http://www.w3.org/2000/svg">
 <g>
  <title>background</title>
  <rect x="-1" y="-1" width="282" height="52" id="canvas_background" fill="none"/>
 </g>
 <defs>
  <linearGradient y2="0.007813" x2="0" y1="1" x1="0" id="svg_4">
   <stop offset="0.15625" stop-color="#1dcb8b"/>
   <stop offset="0.847656" stop-color="#e23474"/>
  </linearGradient>
  <linearGradient y2="0.003906" x2="0" y1="0.910156" x1="0" id="svg_9">
   <stop offset="0" stop-color="#ffaaff"/>
   <stop offset="0.996094" stop-color="#005500"/>
  </linearGradient>
  <linearGradient y2="0" x2="0" y1="0.96875" x1="0" id="svg_10">
   <stop offset="0" stop-color="#1dcb8b"/>
   <stop offset="1" stop-color="#e23474"/>
  </linearGradient>
 </defs>
 <g>
  <title>Layer 1</title>
  <path fill="none" d="m44.17312,17.93565c-0.4071,-0.59782 -0.98382,-0.94491 -1.70048,-1.03609c-0.33607,-0.0404 -0.68698,-0.09635 -1.0188,-0.14816c-0.42512,-0.0632 -0.8619,-0.13054 -1.29232,-0.17613c-1.14815,-0.11398 -1.85209,-0.58124 -2.2772,-1.49714c-0.29155,-0.6258 -0.32653,-1.18425 -0.10602,-1.73544l0.16432,-0.41547c0.28412,-0.72215 0.58097,-1.47435 0.89583,-2.20272c0.3032,-0.70557 0.27988,-1.39974 -0.06891,-2.07113c-0.64033,-1.22982 -1.64747,-2.08356 -2.98644,-2.53322c-0.75801,-0.25591 -1.50965,-0.15955 -2.19027,0.2787c-0.32547,0.20515 -0.66365,0.40408 -0.99442,0.59783c-0.46116,0.27353 -0.93823,0.55741 -1.38667,0.86513c-0.31381,0.21551 -0.7103,0.32948 -1.14178,0.32948l0,0c-1.07712,0 -2.1203,-0.69419 -2.3758,-1.57589c-0.13358,-0.47246 -0.29684,-0.9387 -0.4548,-1.38836c-0.13888,-0.38127 -0.27352,-0.77913 -0.3965,-1.16663c-0.25019,-0.82471 -0.80359,-1.39456 -1.64747,-1.69607c-0.24383,-0.08495 -0.49509,-0.15334 -0.73998,-0.21032c-0.0986,-0.02797 -0.20885,-0.05699 -0.30851,-0.086l-0.05194,-0.01139l-1.39198,0l-0.05301,0.01762c-0.02862,0.00621 -0.05194,0.0176 -0.08057,0.02797c-0.03498,0.01139 -0.07103,0.02279 -0.11025,0.02901c-1.4206,0.25073 -2.27084,0.95631 -2.58677,2.1737c-0.13888,0.53565 -0.33607,1.07545 -0.52265,1.5935c-0.09966,0.27974 -0.19931,0.55845 -0.29154,0.83715c-0.27988,0.83095 -1.28702,1.48575 -2.29523,1.48575c-0.40073,0 -0.78027,-0.10776 -1.08771,-0.31912c-0.56506,-0.3761 -1.15238,-0.72836 -1.7238,-1.06406c-0.27352,-0.16473 -0.54704,-0.32429 -0.81526,-0.48903c-0.53007,-0.32429 -1.11209,-0.42168 -1.68776,-0.2787c-1.56478,0.37403 -2.7108,1.30753 -3.4158,2.77048c-0.27882,0.58643 -0.29154,1.2288 -0.02332,1.866c0.12192,0.29009 0.23853,0.58123 0.35515,0.87652c0.17493,0.44966 0.35515,0.91071 0.5587,1.36038c0.41876,0.92211 0.37317,1.73648 -0.15796,2.5498c-0.36045,0.55845 -0.83222,0.88793 -1.44393,1.0019c-0.87992,0.16576 -1.82239,0.30771 -2.80621,0.42168c-0.83328,0.09118 -1.47997,0.49524 -1.92735,1.20082c-0.60535,0.95631 -0.8619,2.04315 -0.76967,3.22119c0.08799,1.10446 0.62973,1.89499 1.60825,2.35087c0.35515,0.16577 0.70394,0.3647 1.04848,0.55223c0.37742,0.21032 0.76331,0.42686 1.17041,0.6144c0.58308,0.26109 1.0188,0.86513 1.15874,1.59867c0.14524,0.7636 -0.05194,1.53755 -0.52477,2.00897c-0.65835,0.67138 -1.30398,1.39457 -1.91569,2.14573c-0.27988,0.33568 -0.47813,0.75738 -0.55446,1.16145c-0.28412,1.58727 1.07817,3.93815 2.60479,4.49557c0.37741,0.13675 0.85554,0.17612 1.29232,0.11292c0.82055,-0.12536 1.67185,-0.29009 2.59737,-0.51182c0.94989,-0.22794 1.68351,-0.03522 2.38745,0.64341c0.52902,0.51183 0.76861,1.06405 0.75059,1.75201c-0.02227,0.88275 -0.04559,1.82766 -0.08693,2.78397c-0.03499,0.72215 0.22157,1.34898 0.75164,1.85562c0.84494,0.80815 1.90509,1.28681 3.16137,1.41736c0.141,0.01762 0.27351,0.02279 0.40815,0.02279c0.9552,0 1.72911,-0.39888 2.28356,-1.18424c0.22052,-0.30254 0.46011,-0.58642 0.71561,-0.88793c0.26291,-0.31289 0.53007,-0.63097 0.77496,-0.97287c0.40074,-0.58021 1.14073,-0.9273 1.96764,-0.9273c0.80996,0 1.54358,0.3419 1.95704,0.90553c0.33818,0.46625 0.7103,0.91591 1.06651,1.34899c0.22051,0.26212 0.44208,0.52943 0.65199,0.80192c0.4071,0.51805 0.96049,0.81955 1.58386,0.87654c1.51389,0.13675 2.87089,-0.31912 4.02327,-1.34899c0.55233,-0.49524 0.81525,-1.13243 0.77391,-1.90017c-0.02227,-0.33569 -0.02863,-0.689 -0.03499,-1.02469c-0.0106,-0.44448 -0.02332,-0.89933 -0.05831,-1.34899c-0.08057,-1.05887 0.25762,-1.82143 1.05485,-2.39645c0.52902,-0.37611 1.04743,-0.51286 1.61249,-0.42169c1.0188,0.16473 1.92841,0.34708 2.78395,0.55845c0.88416,0.21033 1.70048,0.0114 2.40972,-0.60404c0.89158,-0.76255 1.47361,-1.73544 1.7238,-2.88549c0.20991,-0.96149 -0.02332,-1.79242 -0.69334,-2.47002c-0.26291,-0.26731 -0.51841,-0.55742 -0.7633,-0.83612c-0.2449,-0.28389 -0.50039,-0.57503 -0.76967,-0.84856c-0.73256,-0.73872 -0.93611,-1.50232 -0.66259,-2.46898c0.18658,-0.6776 0.52901,-1.13244 1.06545,-1.42876c0.87886,-0.49006 1.69942,-0.92833 2.51573,-1.34277c0.65199,-0.33569 1.07075,-0.85372 1.23931,-1.54168c0.36576,-1.44741 0.12086,-2.81298 -0.72408,-4.05939l0,0.00001z" id="svg_3" stroke="#1dcb8b"/>
  <path fill-opacity="0.95" stroke="url(#gradbox_stroke)" fill="url(#svg_9)" d="m41.35204,18.81194c-0.35013,-0.5076 -0.84613,-0.8023 -1.4625,-0.87972c-0.28903,-0.0343 -0.59083,-0.08181 -0.87622,-0.1258c-0.36562,-0.05366 -0.74128,-0.11085 -1.11146,-0.14955c-0.98746,-0.09677 -1.59288,-0.49352 -1.95851,-1.2712c-0.25074,-0.53134 -0.28082,-1.00551 -0.09117,-1.47353l0.14132,-0.35277c0.24436,-0.61316 0.49966,-1.25184 0.77046,-1.87028c0.26077,-0.59909 0.24071,-1.1885 -0.05927,-1.75856c-0.55071,-1.04423 -1.41691,-1.76912 -2.56849,-2.15091c-0.65192,-0.2173 -1.29837,-0.13549 -1.88373,0.23664c-0.27992,0.17418 -0.57078,0.34309 -0.85525,0.5076c-0.39663,0.23224 -0.80693,0.47329 -1.19261,0.73456c-0.26989,0.18298 -0.6109,0.27975 -0.98199,0.27975l0,0c-0.92637,0 -1.82356,-0.58941 -2.0433,-1.33805c-0.11489,-0.40116 -0.2553,-0.79703 -0.39116,-1.17883c-0.11944,-0.32373 -0.23524,-0.66155 -0.341,-0.99056c-0.21518,-0.70026 -0.69113,-1.18411 -1.41691,-1.44011c-0.20971,-0.07213 -0.4258,-0.13019 -0.63642,-0.17858c-0.0848,-0.02375 -0.17962,-0.04838 -0.26533,-0.07302l-0.04468,-0.00967l-1.19717,0l-0.04559,0.01495c-0.02461,0.00528 -0.04467,0.01496 -0.06929,0.02376c-0.03009,0.00967 -0.06109,0.01934 -0.09483,0.02463c-1.22178,0.21289 -1.95303,0.81198 -2.22474,1.84565c-0.11944,0.45482 -0.28904,0.91315 -0.44951,1.35301c-0.08571,0.23752 -0.17141,0.47417 -0.25074,0.71081c-0.24071,0.70554 -1.1069,1.26152 -1.974,1.26152c-0.34466,0 -0.67108,-0.09149 -0.93549,-0.27095c-0.48598,-0.31934 -0.99111,-0.61844 -1.48256,-0.90347c-0.23524,-0.13988 -0.47048,-0.27536 -0.70116,-0.41523c-0.45589,-0.27536 -0.95646,-0.35805 -1.45155,-0.23665c-1.34579,0.31758 -2.33143,1.11021 -2.93776,2.35238c-0.2398,0.49792 -0.25074,1.04334 -0.02006,1.58437c0.10486,0.24632 0.20515,0.49353 0.30545,0.74424c0.15044,0.3818 0.30544,0.77328 0.48051,1.15508c0.36015,0.78295 0.32094,1.47441 -0.13586,2.16499c-0.31,0.47416 -0.71575,0.75392 -1.24184,0.85069c-0.75678,0.14076 -1.56736,0.26127 -2.41349,0.35804c-0.71666,0.07742 -1.27284,0.42052 -1.65762,1.0196c-0.52062,0.81199 -0.74127,1.73481 -0.66195,2.73505c0.07568,0.93778 0.5416,1.60901 1.38317,1.99608c0.30545,0.14076 0.60543,0.30967 0.90175,0.4689c0.3246,0.17859 0.65649,0.36245 1.00661,0.52167c0.50148,0.22169 0.87622,0.73457 0.99658,1.35741c0.12491,0.64835 -0.04468,1.30551 -0.45134,1.70578c-0.56621,0.57006 -1.12149,1.1841 -1.64758,1.8219c-0.24071,0.28503 -0.41122,0.64307 -0.47686,0.98617c-0.24436,1.34773 0.92728,3.34381 2.24024,3.8171c0.3246,0.11613 0.73581,0.14956 1.11146,0.09589c0.70572,-0.10645 1.43788,-0.24632 2.23387,-0.43458c0.81695,-0.19354 1.4479,-0.02991 2.05333,0.54631c0.45498,0.43458 0.66104,0.90347 0.64554,1.48761c-0.01915,0.74951 -0.03921,1.55183 -0.07477,2.3638c-0.03009,0.61317 0.19056,1.1454 0.64645,1.57558c0.72669,0.68619 1.63847,1.09262 2.71894,1.20346c0.12126,0.01496 0.23523,0.01936 0.35103,0.01936c0.82152,0 1.48712,-0.3387 1.96398,-1.00553c0.18965,-0.25687 0.39571,-0.49791 0.61545,-0.75391c0.22612,-0.26569 0.45589,-0.53576 0.66651,-0.82606c0.34465,-0.49264 0.98108,-0.78736 1.69227,-0.78736c0.6966,0 1.32755,0.29032 1.68314,0.76888c0.29086,0.39588 0.6109,0.77768 0.91726,1.14539c0.18965,0.22258 0.38021,0.44955 0.56074,0.68091c0.35013,0.43986 0.82607,0.69586 1.3622,0.74425c1.30203,0.11612 2.46911,-0.27096 3.46021,-1.1454c0.47504,-0.42051 0.70116,-0.96154 0.6656,-1.61341c-0.01915,-0.28503 -0.02462,-0.58502 -0.03009,-0.87004c-0.00912,-0.3774 -0.02006,-0.7636 -0.05015,-1.14539c-0.06929,-0.89909 0.22157,-1.54656 0.90723,-2.0348c0.45498,-0.31934 0.90084,-0.43546 1.38682,-0.35805c0.87622,0.13988 1.65852,0.29471 2.39433,0.47418c0.76043,0.17858 1.4625,0.00967 2.07248,-0.51289c0.76681,-0.64747 1.26738,-1.47353 1.48256,-2.45001c0.18053,-0.81639 -0.02006,-1.52192 -0.59631,-2.09726c-0.22612,-0.22697 -0.44586,-0.47329 -0.65648,-0.70993c-0.21062,-0.24104 -0.43036,-0.48825 -0.66195,-0.7205c-0.63004,-0.62724 -0.80511,-1.27559 -0.56987,-2.09637c0.16048,-0.57534 0.45498,-0.96153 0.91634,-1.21313c0.75587,-0.41611 1.46159,-0.78823 2.16366,-1.14013c0.56074,-0.28502 0.9209,-0.72488 1.06587,-1.30901c0.31457,-1.22897 0.10395,-2.38844 -0.62274,-3.44675l-0.00001,0z" id="svg_28"/>
  <text style="cursor: move;" fill="url(#svg_4)" stroke-width="0" stroke-opacity="null" x="44.686324" y="22.205393" id="svg_1" font-size="24" font-family="'Simonetta', serif" text-anchor="start" xml:space="preserve" font-weight="bold" transform="matrix(1.0325813824462793,0,0,0.9382082714987732,8.281975278025575,1.8325944024466139) " stroke="url(#gradbox_stroke)">Sample Components</text>
  <text fill="url(#svg_10)" stroke-width="0" stroke-opacity="null" x="58.483072" y="39.068669" id="svg_5" font-size="14" font-family="'Simonetta', serif" text-anchor="start" xml:space="preserve" transform="matrix(1.033812071542055,0,0,0.7295270447677277,-1.5922104981264753,9.557505094761193) " stroke="url(#gradbox_stroke)" font-style="normal">Automation Testing Site</text>
  <text fill="#1dcb8b" stroke="url(#gradbox_stroke)" stroke-width="0" stroke-opacity="null" x="18.841127" y="26.57815" id="svg_7" font-size="20" font-family="'Simonetta', serif" text-anchor="start" xml:space="preserve" font-weight="bold">S</text>
  <text fill="#1dcb8b" stroke-width="0" stroke-opacity="null" x="14.260865" y="38.549364" id="svg_8" font-size="24" font-family="'Simonetta', serif" text-anchor="start" xml:space="preserve" font-weight="bold" transform="matrix(0.7715669870376587,0,0,0.7833236455917358,3.4571263096052007,2.681369885802269) " stroke="url(#gradbox_stroke)">C</text>
 </g>
</svg>