<?xml version="1.0" encoding="utf-8"?>
<!-- Generator: Adobe Illustrator 23.0.2, SVG Export Plug-In . SVG Version: 6.00 Build 0)  -->
<svg version="1.1" id="Layer_1" xmlns:rdf="http://www.w3.org/1999/02/22-rdf-syntax-ns#" xmlns:svg="http://www.w3.org/2000/svg"
	 xmlns="http://www.w3.org/2000/svg" xmlns:xlink="http://www.w3.org/1999/xlink" x="0px" y="0px" viewBox="0 0 300 150"
	 style="enable-background:new 0 0 300 150;" xml:space="preserve">
<style type="text/css">
	.st0{fill:url(#SVGID_1_);}
</style>
<g transform="translate(0,-952.36218)">
	<linearGradient id="SVGID_1_" gradientUnits="userSpaceOnUse" x1="87.5" y1="1023.4418" x2="212.5" y2="1023.4418">
		<stop  offset="6.926126e-08" style="stop-color:#1DCB8B"/>
		<stop  offset="1" style="stop-color:#000000"/>
	</linearGradient>
	<path class="st0" d="M121.3,962.4c-1.4,0.2-2.6,1.5-2.5,2.9v19.9c0,1.5,1.3,2.9,2.8,2.9s2.9-1.4,2.8-2.9v-19.9
		C124.5,963.6,122.9,962.2,121.3,962.4z M178.1,962.4c-1.4,0.2-2.6,1.5-2.5,2.9v19.9c0,1.5,1.3,2.9,2.8,2.9s2.9-1.4,2.8-2.9v-19.9
		C181.3,963.6,179.7,962.2,178.1,962.4z M103.1,972.4c-8.6,0-15.6,7-15.6,15.6v80.9c0,8.6,7,15.6,15.6,15.6h93.8
		c8.6,0,15.6-7,15.6-15.6V988c0-8.6-7-15.6-15.6-15.6h-7.1c-1.5,0-2.9,1.3-2.9,2.8s1.4,2.9,2.9,2.8h7.1c5.6,0,9.9,4.4,9.9,9.9v80.9
		c0,5.6-4.4,9.9-9.9,9.9h-93.8c-5.6,0-9.9-4.4-9.9-9.9v-65.3h105.1c1.5,0,2.9-1.3,2.9-2.8s-1.4-2.9-2.9-2.8H93.2V988
		c0-5.6,4.4-9.9,9.9-9.9h7.1c1.5,0,2.9-1.3,2.9-2.8s-1.4-2.9-2.9-2.8L103.1,972.4z M132.7,972.4c-1.5,0.1-2.8,1.5-2.7,3
		s1.5,2.8,3,2.7H167c1.5,0,2.9-1.3,2.9-2.8s-1.4-2.9-2.9-2.8C155.6,972.4,144.1,972.4,132.7,972.4L132.7,972.4z M128.7,1019.2
		c-6.2,0-11.4,5.8-11.4,12.8c0,1.5,1.3,2.9,2.8,2.9s2.9-1.4,2.8-2.9c0-4.1,3.3-7.1,5.7-7.1h4.3c2.3,0,5.7,3,5.7,7.1
		c0,2.3-0.6,4.2-1.4,5.4s-1.7,1.7-2.8,1.7h-6.4c-1.5,0-2.9,1.3-2.9,2.8s1.4,2.9,2.9,2.8h6.4c1.2,0,2,0.4,2.8,1.6
		c0.8,1.2,1.4,3.2,1.4,5.5c0,4.1-3.3,7.1-5.7,7.1h-4.3c-2.3,0-5.7-3-5.7-7.1c0-1.5-1.3-2.9-2.8-2.9s-2.9,1.4-2.8,2.9
		c0,7,5.1,12.8,11.4,12.8h4.3c6.2,0,11.4-5.8,11.4-12.8c0-3.2-0.8-6.3-2.4-8.7c-0.3-0.5-0.7-0.9-1.1-1.3c0.4-0.4,0.7-0.9,1.1-1.3
		c1.6-2.4,2.4-5.4,2.4-8.6c0-7-5.1-12.8-11.4-12.8H128.7z M167.4,1019.2c-1.3-0.2-2.1,0.7-2.8,1.4c-3.4,3.5-6.8,6.8-9.5,9.4
		c-1.3,1-1.4,3.1-0.3,4.2c1.1,1.1,3.2,1.1,4.2-0.1c3-2.9,3.7-3.6,5.1-5.1c0,9.9,0,20.2,0,30c-2.4,0-4.9,0-7.4,0
		c-1.5,0.1-2.8,1.5-2.7,3c0.1,1.5,1.5,2.8,3,2.7H177c1.5,0,2.9-1.3,2.9-2.8c0-1.5-1.4-2.9-2.9-2.8h-7.1c0-12.1,0-26.8,0-37.3
		C169.8,1020.7,168.6,1019.5,167.4,1019.2L167.4,1019.2z"/>
</g>
</svg>
