<?xml version="1.0" encoding="utf-8"?>
<!-- Generator: Adobe Illustrator 23.0.2, SVG Export Plug-In . SVG Version: 6.00 Build 0)  -->
<svg version="1.1" id="Layer_1" xmlns="http://www.w3.org/2000/svg" xmlns:xlink="http://www.w3.org/1999/xlink" x="0px" y="0px"
	 viewBox="0 0 300 150" style="enable-background:new 0 0 300 150;" xml:space="preserve">
<style type="text/css">
	.st0{fill:url(#SVGID_1_);}
	.st1{fill:none;stroke:url(#SVGID_2_);stroke-width:2;stroke-miterlimit:10;}
	
		.st2{fill-rule:evenodd;clip-rule:evenodd;fill:none;stroke:url(#SVGID_3_);stroke-width:2;stroke-linecap:round;stroke-linejoin:round;stroke-miterlimit:10;}
	.st3{fill:url(#SVGID_4_);}
	.st4{fill:url(#SVGID_5_);}
	.st5{fill:url(#SVGID_6_);}
	.st6{fill:url(#SVGID_7_);}
	.st7{fill:url(#SVGID_8_);}
	.st8{fill:url(#SVGID_9_);}
	.st9{fill:url(#SVGID_10_);}
	.st10{fill:url(#SVGID_11_);}
	.st11{fill:url(#SVGID_12_);}
	.st12{fill:url(#SVGID_13_);}
	.st13{fill:url(#SVGID_14_);}
	.st14{fill:url(#SVGID_15_);}
	.st15{fill:url(#SVGID_16_);}
	.st16{fill:url(#SVGID_17_);}
	.st17{fill:url(#SVGID_18_);}
	.st18{fill:url(#SVGID_19_);}
	.st19{fill:url(#SVGID_20_);}
	.st20{fill:url(#SVGID_21_);}
	.st21{fill:url(#SVGID_22_);}
</style>
<g>
	<linearGradient id="SVGID_1_" gradientUnits="userSpaceOnUse" x1="84" y1="58" x2="211" y2="58">
		<stop  offset="6.926126e-08" style="stop-color:#1DCB8B"/>
		<stop  offset="1" style="stop-color:#000000"/>
	</linearGradient>
	<path class="st0" d="M205.9,47.1c1.7,0,3.1,1.4,3.1,3.1v15.7c0,1.7-1.4,3.1-3.1,3.1H89.1c-1.7,0-3.1-1.4-3.1-3.1V50.2
		c0-1.7,1.4-3.1,3.1-3.1H205.9 M205.9,45.1H89.1c-2.8,0-5.1,2.3-5.1,5.1v15.7c0,2.8,2.3,5.1,5.1,5.1h116.8c2.8,0,5.1-2.3,5.1-5.1
		V50.2C211,47.4,208.7,45.1,205.9,45.1L205.9,45.1z"/>
</g>
<linearGradient id="SVGID_2_" gradientUnits="userSpaceOnUse" x1="102" y1="100.8815" x2="211" y2="100.8815">
	<stop  offset="5.434346e-07" style="stop-color:#18B078"/>
	<stop  offset="1" style="stop-color:#000000"/>
</linearGradient>
<path class="st1" d="M210,66.8v57.5c0,5.4-4.4,9.8-9.8,9.8h-87.5c-5.4,0-9.8-4.4-9.8-9.8V69.8"/>
<linearGradient id="SVGID_3_" gradientUnits="userSpaceOnUse" x1="90" y1="57.5" x2="103" y2="57.5">
	<stop  offset="6.926126e-08" style="stop-color:#1DCB8B"/>
	<stop  offset="1" style="stop-color:#000000"/>
</linearGradient>
<polyline class="st2" points="91,55 96,60 102,55 "/>
<g>
	<g>
		<linearGradient id="SVGID_4_" gradientUnits="userSpaceOnUse" x1="118.8052" y1="58.0728" x2="172.2129" y2="58.0728">
			<stop  offset="5.434346e-07" style="stop-color:#18B078"/>
			<stop  offset="1" style="stop-color:#000000"/>
		</linearGradient>
		<path class="st3" d="M118.8,61v-8h2.7c0.8,0,1.5,0.2,2.2,0.5s1.1,0.8,1.4,1.4s0.5,1.3,0.5,2c0,0.6-0.1,1.1-0.3,1.6
			s-0.5,0.9-0.8,1.3s-0.8,0.6-1.3,0.8s-1.1,0.3-1.7,0.3H118.8z M119.8,60.1h1.7c0.6,0,1.2-0.1,1.7-0.4s0.8-0.7,1.1-1.1
			s0.4-1,0.4-1.6c0-0.6-0.1-1.1-0.3-1.6s-0.6-0.8-1.1-1.1s-1-0.4-1.7-0.4h-1.7V60.1z"/>
		<linearGradient id="SVGID_5_" gradientUnits="userSpaceOnUse" x1="118.8052" y1="58.0728" x2="172.2129" y2="58.0728">
			<stop  offset="5.434346e-07" style="stop-color:#18B078"/>
			<stop  offset="1" style="stop-color:#000000"/>
		</linearGradient>
		<path class="st4" d="M127.2,61v-5.8h0.9v0.9c0.3-0.3,0.5-0.6,0.9-0.8s0.7-0.3,1.1-0.3V56c-0.1,0-0.2,0-0.4,0
			c-0.3,0-0.6,0.1-0.9,0.3s-0.5,0.4-0.7,0.6V61H127.2z"/>
		<linearGradient id="SVGID_6_" gradientUnits="userSpaceOnUse" x1="118.8052" y1="58.0728" x2="172.2129" y2="58.0728">
			<stop  offset="5.434346e-07" style="stop-color:#18B078"/>
			<stop  offset="1" style="stop-color:#000000"/>
		</linearGradient>
		<path class="st5" d="M131.1,59.6c-0.2-0.5-0.3-1-0.3-1.5s0.1-1.1,0.3-1.5c0.2-0.5,0.6-0.8,1-1.1c0.4-0.3,0.9-0.4,1.5-0.4
			s1.1,0.1,1.5,0.4c0.4,0.3,0.8,0.6,1,1.1c0.2,0.5,0.3,1,0.3,1.5s-0.1,1.1-0.3,1.5c-0.2,0.5-0.6,0.8-1,1.1c-0.4,0.3-0.9,0.4-1.5,0.4
			s-1.1-0.1-1.5-0.4C131.7,60.4,131.4,60.1,131.1,59.6z M131.7,58.1c0,0.6,0.2,1.2,0.5,1.6c0.3,0.4,0.8,0.7,1.4,0.7
			c0.4,0,0.7-0.1,1-0.3c0.3-0.2,0.5-0.5,0.7-0.8s0.2-0.7,0.2-1.1c0-0.4-0.1-0.8-0.2-1.1s-0.4-0.6-0.7-0.8s-0.6-0.3-1-0.3
			s-0.7,0.1-1,0.3s-0.5,0.5-0.7,0.8S131.7,57.7,131.7,58.1z"/>
		<linearGradient id="SVGID_7_" gradientUnits="userSpaceOnUse" x1="118.8052" y1="58.0728" x2="172.2129" y2="58.0728">
			<stop  offset="5.434346e-07" style="stop-color:#18B078"/>
			<stop  offset="1" style="stop-color:#000000"/>
		</linearGradient>
		<path class="st6" d="M138,63.2v-8h0.9V56c0.2-0.3,0.5-0.5,0.8-0.7s0.7-0.3,1.1-0.3c0.8,0,1.4,0.3,1.9,0.8s0.7,1.3,0.7,2.2
			c0,0.9-0.2,1.7-0.7,2.2s-1.1,0.8-1.9,0.8c-0.4,0-0.8-0.1-1.1-0.3s-0.6-0.4-0.9-0.8v3.1H138z M138.9,59.4c0.2,0.3,0.4,0.5,0.7,0.7
			c0.3,0.2,0.7,0.3,1,0.3c0.6,0,1-0.2,1.4-0.6c0.3-0.4,0.5-1,0.5-1.6s-0.2-1.2-0.5-1.6s-0.8-0.6-1.4-0.6c-0.3,0-0.7,0.1-1,0.3
			c-0.3,0.2-0.6,0.4-0.7,0.7V59.4z"/>
		<linearGradient id="SVGID_8_" gradientUnits="userSpaceOnUse" x1="118.8052" y1="58.0728" x2="172.2129" y2="58.0728">
			<stop  offset="5.434346e-07" style="stop-color:#18B078"/>
			<stop  offset="1" style="stop-color:#000000"/>
		</linearGradient>
		<path class="st7" d="M144.5,58.1c0-0.9,0.2-1.7,0.7-2.2s1.1-0.8,1.9-0.8c0.4,0,0.7,0.1,1.1,0.3s0.6,0.4,0.9,0.8V53h0.9v8H149v-0.9
			c-0.2,0.3-0.5,0.5-0.8,0.7s-0.7,0.3-1.1,0.3c-0.8,0-1.4-0.3-1.9-0.8S144.5,59,144.5,58.1z M145.9,56.5c-0.3,0.4-0.5,1-0.5,1.6
			s0.2,1.2,0.5,1.6s0.8,0.6,1.4,0.6c0.4,0,0.7-0.1,1-0.3c0.3-0.2,0.6-0.4,0.7-0.6v-2.6c-0.2-0.3-0.4-0.5-0.7-0.7
			c-0.3-0.2-0.7-0.3-1-0.3C146.7,55.8,146.3,56,145.9,56.5z"/>
		<linearGradient id="SVGID_9_" gradientUnits="userSpaceOnUse" x1="118.8052" y1="58.0728" x2="172.2129" y2="58.0728">
			<stop  offset="5.434346e-07" style="stop-color:#18B078"/>
			<stop  offset="1" style="stop-color:#000000"/>
		</linearGradient>
		<path class="st8" d="M151.7,59.6c-0.2-0.5-0.3-1-0.3-1.5s0.1-1.1,0.3-1.5c0.2-0.5,0.6-0.8,1-1.1c0.4-0.3,0.9-0.4,1.5-0.4
			s1.1,0.1,1.5,0.4c0.4,0.3,0.8,0.6,1,1.1c0.2,0.5,0.3,1,0.3,1.5s-0.1,1.1-0.3,1.5c-0.2,0.5-0.6,0.8-1,1.1c-0.4,0.3-0.9,0.4-1.5,0.4
			s-1.1-0.1-1.5-0.4C152.3,60.4,152,60.1,151.7,59.6z M152.3,58.1c0,0.6,0.2,1.2,0.5,1.6c0.3,0.4,0.8,0.7,1.4,0.7
			c0.4,0,0.7-0.1,1-0.3c0.3-0.2,0.5-0.5,0.7-0.8s0.2-0.7,0.2-1.1c0-0.4-0.1-0.8-0.2-1.1s-0.4-0.6-0.7-0.8s-0.6-0.3-1-0.3
			s-0.7,0.1-1,0.3s-0.5,0.5-0.7,0.8S152.3,57.7,152.3,58.1z"/>
		<linearGradient id="SVGID_10_" gradientUnits="userSpaceOnUse" x1="118.8052" y1="58.0728" x2="172.2129" y2="58.0728">
			<stop  offset="5.434346e-07" style="stop-color:#18B078"/>
			<stop  offset="1" style="stop-color:#000000"/>
		</linearGradient>
		<path class="st9" d="M157.8,55.2h0.9l1.4,4.6l1.5-4.6h0.8l1.5,4.6l1.4-4.6h0.9l-1.9,5.8h-0.9l-1.5-4.7l-1.5,4.7h-0.9L157.8,55.2z"
			/>
		<linearGradient id="SVGID_11_" gradientUnits="userSpaceOnUse" x1="118.8052" y1="58.0728" x2="172.2129" y2="58.0728">
			<stop  offset="5.434346e-07" style="stop-color:#18B078"/>
			<stop  offset="1" style="stop-color:#000000"/>
		</linearGradient>
		<path class="st10" d="M167.4,61v-5.8h0.9V56c0.2-0.3,0.5-0.5,0.9-0.7s0.8-0.3,1.2-0.3c1.2,0,1.8,0.6,1.8,1.9V61h-0.9v-3.8
			c0-0.5-0.1-0.8-0.3-1s-0.5-0.3-1-0.3c-0.3,0-0.7,0.1-1,0.3s-0.6,0.4-0.7,0.6V61H167.4z"/>
	</g>
</g>
<g>
	<g>
		<linearGradient id="SVGID_12_" gradientUnits="userSpaceOnUse" x1="140.8647" y1="82.4297" x2="162.2461" y2="82.4297">
			<stop  offset="5.434346e-07" style="stop-color:#18B078"/>
			<stop  offset="1" style="stop-color:#000000"/>
		</linearGradient>
		<path class="st11" d="M141.4,84.5c-0.3-0.6-0.5-1.3-0.5-2.1s0.2-1.5,0.5-2.1c0.3-0.6,0.8-1.1,1.4-1.5s1.3-0.5,2.1-0.5
			c0.8,0,1.5,0.2,2.1,0.5s1.1,0.9,1.4,1.5c0.3,0.6,0.5,1.3,0.5,2.1s-0.2,1.5-0.5,2.1c-0.3,0.6-0.8,1.1-1.4,1.5s-1.3,0.5-2.1,0.5
			c-0.8,0-1.5-0.2-2.1-0.5S141.7,85.2,141.4,84.5z M141.9,82.4c0,0.6,0.1,1.2,0.4,1.7c0.2,0.5,0.6,0.9,1,1.2s1,0.4,1.6,0.4
			c0.6,0,1.1-0.1,1.6-0.4s0.8-0.7,1-1.2c0.2-0.5,0.4-1,0.4-1.7c0-0.6-0.1-1.2-0.4-1.7c-0.2-0.5-0.6-0.9-1-1.2s-1-0.4-1.6-0.4
			c-0.9,0-1.6,0.3-2.1,0.9C142.2,80.7,141.9,81.5,141.9,82.4z"/>
		<linearGradient id="SVGID_13_" gradientUnits="userSpaceOnUse" x1="140.8647" y1="82.4297" x2="162.2461" y2="82.4297">
			<stop  offset="5.434346e-07" style="stop-color:#18B078"/>
			<stop  offset="1" style="stop-color:#000000"/>
		</linearGradient>
		<path class="st12" d="M150.3,86.4v-5.8h0.9v0.8c0.2-0.3,0.5-0.5,0.9-0.7s0.8-0.3,1.2-0.3c1.2,0,1.8,0.6,1.8,1.9v4.1h-0.9v-3.8
			c0-0.5-0.1-0.8-0.3-1s-0.5-0.3-1-0.3c-0.3,0-0.7,0.1-1,0.3s-0.6,0.4-0.7,0.6v4.2H150.3z"/>
		<linearGradient id="SVGID_14_" gradientUnits="userSpaceOnUse" x1="140.8647" y1="82.4297" x2="162.2461" y2="82.4297">
			<stop  offset="5.434346e-07" style="stop-color:#18B078"/>
			<stop  offset="1" style="stop-color:#000000"/>
		</linearGradient>
		<path class="st13" d="M156.6,83.5c0-0.6,0.1-1.1,0.4-1.5c0.2-0.5,0.6-0.8,1-1.1s0.9-0.4,1.5-0.4c0.6,0,1.1,0.1,1.5,0.4
			c0.4,0.3,0.7,0.6,1,1.1c0.2,0.5,0.3,1,0.3,1.6v0.2h-4.7c0,0.6,0.2,1,0.6,1.4c0.4,0.4,0.9,0.6,1.5,0.6c0.3,0,0.7-0.1,1-0.2
			c0.3-0.1,0.6-0.3,0.8-0.5l0.4,0.6c-0.6,0.6-1.4,0.9-2.3,0.9c-0.9,0-1.6-0.3-2.1-0.8S156.6,84.4,156.6,83.5z M157.5,83.2h3.8
			c0-0.2,0-0.4-0.1-0.7s-0.2-0.4-0.3-0.6c-0.1-0.2-0.3-0.3-0.6-0.5s-0.5-0.2-0.9-0.2c-0.3,0-0.6,0.1-0.8,0.2s-0.4,0.3-0.6,0.5
			c-0.2,0.2-0.3,0.4-0.4,0.6S157.6,82.9,157.5,83.2z"/>
	</g>
</g>
<g>
	<g>
		<linearGradient id="SVGID_15_" gradientUnits="userSpaceOnUse" x1="141.4082" y1="100.9648" x2="162.9531" y2="100.9648">
			<stop  offset="5.434346e-07" style="stop-color:#18B078"/>
			<stop  offset="1" style="stop-color:#000000"/>
		</linearGradient>
		<path class="st14" d="M141.4,97.8v-0.9h6.1v0.9h-2.5v7.1h-1v-7.1H141.4z"/>
		<linearGradient id="SVGID_16_" gradientUnits="userSpaceOnUse" x1="141.4082" y1="100.9648" x2="162.9531" y2="100.9648">
			<stop  offset="5.434346e-07" style="stop-color:#18B078"/>
			<stop  offset="1" style="stop-color:#000000"/>
		</linearGradient>
		<path class="st15" d="M148,99.1h0.9l1.4,4.6l1.5-4.6h0.8l1.5,4.6l1.4-4.6h0.9l-1.9,5.8h-0.9l-1.5-4.7l-1.5,4.7h-0.9L148,99.1z"/>
		<linearGradient id="SVGID_17_" gradientUnits="userSpaceOnUse" x1="141.4082" y1="100.9648" x2="162.9531" y2="100.9648">
			<stop  offset="5.434346e-07" style="stop-color:#18B078"/>
			<stop  offset="1" style="stop-color:#000000"/>
		</linearGradient>
		<path class="st16" d="M157.6,103.5c-0.2-0.5-0.3-1-0.3-1.5s0.1-1.1,0.3-1.5s0.6-0.8,1-1.1c0.4-0.3,0.9-0.4,1.5-0.4
			s1.1,0.1,1.5,0.4c0.4,0.3,0.8,0.6,1,1.1s0.3,1,0.3,1.5s-0.1,1.1-0.3,1.5s-0.6,0.8-1,1.1c-0.4,0.3-0.9,0.4-1.5,0.4
			s-1.1-0.1-1.5-0.4C158.1,104.4,157.8,104,157.6,103.5z M158.2,102c0,0.6,0.2,1.2,0.5,1.6c0.3,0.4,0.8,0.7,1.4,0.7
			c0.4,0,0.7-0.1,1-0.3c0.3-0.2,0.5-0.5,0.7-0.8c0.1-0.3,0.2-0.7,0.2-1.1c0-0.4-0.1-0.8-0.2-1.1c-0.1-0.3-0.4-0.6-0.7-0.8
			c-0.3-0.2-0.6-0.3-1-0.3s-0.7,0.1-1,0.3c-0.3,0.2-0.5,0.5-0.7,0.8C158.2,101.2,158.2,101.6,158.2,102z"/>
	</g>
</g>
<g>
	<g>
		<linearGradient id="SVGID_18_" gradientUnits="userSpaceOnUse" x1="138.4932" y1="119.8799" x2="168.4814" y2="119.8799">
			<stop  offset="5.434346e-07" style="stop-color:#18B078"/>
			<stop  offset="1" style="stop-color:#000000"/>
		</linearGradient>
		<path class="st17" d="M138.5,116.7v-0.9h6.1v0.9H142v7.1h-1v-7.1H138.5z"/>
		<linearGradient id="SVGID_19_" gradientUnits="userSpaceOnUse" x1="138.4932" y1="119.8799" x2="168.4814" y2="119.8799">
			<stop  offset="5.434346e-07" style="stop-color:#18B078"/>
			<stop  offset="1" style="stop-color:#000000"/>
		</linearGradient>
		<path class="st18" d="M145.8,123.8v-8h0.9v3c0.2-0.3,0.5-0.5,0.9-0.7s0.8-0.3,1.2-0.3c1.2,0,1.8,0.6,1.8,1.9v4.1h-0.9V120
			c0-0.5-0.1-0.8-0.3-1s-0.5-0.3-1-0.3c-0.3,0-0.7,0.1-1,0.3s-0.6,0.4-0.7,0.6v4.2H145.8z"/>
		<linearGradient id="SVGID_20_" gradientUnits="userSpaceOnUse" x1="138.4932" y1="119.8799" x2="168.4814" y2="119.8799">
			<stop  offset="5.434346e-07" style="stop-color:#18B078"/>
			<stop  offset="1" style="stop-color:#000000"/>
		</linearGradient>
		<path class="st19" d="M152.5,123.8V118h0.9v0.9c0.3-0.3,0.5-0.6,0.9-0.8s0.7-0.3,1.1-0.3v0.9c-0.1,0-0.2,0-0.4,0
			c-0.3,0-0.6,0.1-0.9,0.3s-0.5,0.4-0.7,0.6v4.1H152.5z"/>
		<linearGradient id="SVGID_21_" gradientUnits="userSpaceOnUse" x1="138.4932" y1="119.8799" x2="168.4814" y2="119.8799">
			<stop  offset="5.434346e-07" style="stop-color:#18B078"/>
			<stop  offset="1" style="stop-color:#000000"/>
		</linearGradient>
		<path class="st20" d="M156.1,120.9c0-0.6,0.1-1.1,0.4-1.5s0.6-0.8,1-1.1c0.4-0.3,0.9-0.4,1.5-0.4c0.6,0,1.1,0.1,1.5,0.4
			c0.4,0.3,0.7,0.6,1,1.1s0.3,1,0.3,1.6v0.2H157c0,0.6,0.2,1,0.6,1.4s0.9,0.6,1.5,0.6c0.3,0,0.7-0.1,1-0.2s0.6-0.3,0.8-0.5l0.4,0.6
			c-0.6,0.6-1.4,0.9-2.3,0.9c-0.9,0-1.6-0.3-2.1-0.8C156.4,122.5,156.1,121.8,156.1,120.9z M157,120.5h3.8c0-0.2,0-0.4-0.1-0.7
			s-0.2-0.4-0.3-0.6c-0.1-0.2-0.3-0.3-0.6-0.5c-0.3-0.1-0.5-0.2-0.9-0.2c-0.3,0-0.6,0.1-0.8,0.2c-0.2,0.1-0.4,0.3-0.6,0.5
			c-0.2,0.2-0.3,0.4-0.4,0.6C157.1,120.1,157,120.3,157,120.5z"/>
		<linearGradient id="SVGID_22_" gradientUnits="userSpaceOnUse" x1="138.4932" y1="119.8799" x2="168.4814" y2="119.8799">
			<stop  offset="5.434346e-07" style="stop-color:#18B078"/>
			<stop  offset="1" style="stop-color:#000000"/>
		</linearGradient>
		<path class="st21" d="M162.8,120.9c0-0.6,0.1-1.1,0.4-1.5s0.6-0.8,1-1.1c0.4-0.3,0.9-0.4,1.5-0.4c0.6,0,1.1,0.1,1.5,0.4
			c0.4,0.3,0.7,0.6,1,1.1s0.3,1,0.3,1.6v0.2h-4.7c0,0.6,0.2,1,0.6,1.4s0.9,0.6,1.5,0.6c0.3,0,0.7-0.1,1-0.2s0.6-0.3,0.8-0.5l0.4,0.6
			c-0.6,0.6-1.4,0.9-2.3,0.9c-0.9,0-1.6-0.3-2.1-0.8C163.1,122.5,162.8,121.8,162.8,120.9z M163.8,120.5h3.8c0-0.2,0-0.4-0.1-0.7
			s-0.2-0.4-0.3-0.6c-0.1-0.2-0.3-0.3-0.6-0.5c-0.3-0.1-0.5-0.2-0.9-0.2c-0.3,0-0.6,0.1-0.8,0.2c-0.2,0.1-0.4,0.3-0.6,0.5
			s-0.3,0.4-0.4,0.6S163.8,120.3,163.8,120.5z"/>
	</g>
</g>
</svg>
