<?xml version="1.0" encoding="utf-8"?>
<!-- Generator: Adobe Illustrator 23.0.2, SVG Export Plug-In . SVG Version: 6.00 Build 0)  -->
<svg version="1.1" id="Layer_1" xmlns="http://www.w3.org/2000/svg" xmlns:xlink="http://www.w3.org/1999/xlink" x="0px" y="0px"
	 viewBox="0 0 300 150" style="enable-background:new 0 0 300 150;" xml:space="preserve">
<style type="text/css">
	.st0{fill:#FFFFFF;}
	.st1{fill:url(#SVGID_1_);}
	.st2{fill:url(#SVGID_2_);}
	.st3{fill:none;stroke:url(#SVGID_3_);stroke-miterlimit:10;}
	.st4{fill:none;stroke:#000000;stroke-miterlimit:10;}
	.st5{stroke:#000000;stroke-miterlimit:10;}
	.st6{fill:#1DCB8B;stroke:#1DCB8B;stroke-miterlimit:10;}
	.st7{fill:none;stroke:url(#SVGID_4_);stroke-miterlimit:10;}
	.st8{fill:none;stroke:url(#SVGID_5_);stroke-miterlimit:10;}
	.st9{fill:url(#SVGID_6_);}
</style>
<g>
	<rect x="38" y="24" class="st0" width="98" height="102"/>
	<linearGradient id="SVGID_1_" gradientUnits="userSpaceOnUse" x1="33" y1="75" x2="141" y2="75">
		<stop  offset="3.409785e-07" style="stop-color:#1DCB8B"/>
		<stop  offset="1" style="stop-color:#000000"/>
	</linearGradient>
	<path class="st1" d="M136,24v102H38V24H136 M141,19h-5H38h-5v5v102v5h5h98h5v-5V24V19L141,19z"/>
</g>
<g>
	<rect x="156" y="24" class="st0" width="105" height="102"/>
	<linearGradient id="SVGID_2_" gradientUnits="userSpaceOnUse" x1="151" y1="75" x2="266" y2="75">
		<stop  offset="3.409785e-07" style="stop-color:#1DCB8B"/>
		<stop  offset="1" style="stop-color:#000000"/>
	</linearGradient>
	<path class="st2" d="M261,24v102H156V24H261 M266,19h-5H156h-5v5v102v5h5h105h5v-5V24V19L266,19z"/>
</g>
<g>
	<linearGradient id="SVGID_3_" gradientUnits="userSpaceOnUse" x1="154.5" y1="73.5" x2="265.5" y2="73.5">
		<stop  offset="3.409785e-07" style="stop-color:#1DCB8B"/>
		<stop  offset="1" style="stop-color:#000000"/>
	</linearGradient>
	<line class="st3" x1="154.5" y1="73.5" x2="265.5" y2="73.5"/>
</g>
<line class="st4" x1="253.5" y1="73.5" x2="253.5" y2="126.5"/>
<polygon class="st5" points="256.8,78.1 259,78.1 257.5,75.9 256,78.1 "/>
<polygon class="st5" points="258.3,120.9 256,120.9 257.5,123.1 259,120.9 "/>
<rect x="255.5" y="86.5" class="st5" width="4" height="17"/>
<polygon class="st6" points="130.3,120.8 130.3,123 132.5,121.5 130.3,120 "/>
<polygon class="st6" points="43.5,120.8 43.5,123 41.3,121.5 43.5,120 "/>
<g>
	<linearGradient id="SVGID_4_" gradientUnits="userSpaceOnUse" x1="33.5" y1="117.5" x2="138.5" y2="117.5">
		<stop  offset="3.409785e-07" style="stop-color:#1DCB8B"/>
		<stop  offset="1" style="stop-color:#000000"/>
	</linearGradient>
	<line class="st7" x1="33.5" y1="117.5" x2="138.5" y2="117.5"/>
</g>
<g>
	<linearGradient id="SVGID_5_" gradientUnits="userSpaceOnUse" x1="54" y1="121.5" x2="72" y2="121.5">
		<stop  offset="3.409785e-07" style="stop-color:#1DCB8B"/>
		<stop  offset="1" style="stop-color:#000000"/>
	</linearGradient>
	<rect x="54.5" y="120" class="st8" width="17" height="3"/>
	<linearGradient id="SVGID_6_" gradientUnits="userSpaceOnUse" x1="54.5" y1="121.5" x2="71.5" y2="121.5">
		<stop  offset="3.409785e-07" style="stop-color:#1DCB8B"/>
		<stop  offset="1" style="stop-color:#000000"/>
	</linearGradient>
	<rect x="54.5" y="120" class="st9" width="17" height="3"/>
</g>
</svg>
