<?xml version="1.0" encoding="utf-8"?>
<!-- Generator: Adobe Illustrator 23.0.2, SVG Export Plug-In . SVG Version: 6.00 Build 0)  -->
<svg version="1.1" id="Layer_1" xmlns="http://www.w3.org/2000/svg" xmlns:xlink="http://www.w3.org/1999/xlink" x="0px" y="0px"
	 viewBox="0 0 300 150" style="enable-background:new 0 0 300 150;" xml:space="preserve">
<style type="text/css">
	.st0{fill-rule:evenodd;clip-rule:evenodd;fill:url(#SVGID_1_);}
</style>
<g>
	<g>
		<linearGradient id="SVGID_1_" gradientUnits="userSpaceOnUse" x1="22.8191" y1="77.63" x2="277.8191" y2="77.63">
			<stop  offset="4.741732e-07" style="stop-color:#1DCB8B"/>
			<stop  offset="1" style="stop-color:#000000"/>
		</linearGradient>
		<path class="st0" d="M29.4,71c-3.7,0-6.6,3-6.6,6.6c0,3.7,3,6.6,6.6,6.6l126.9,0l0-13.3L29.4,71z M157.9,69.4l0,16.4
			c0,1.7,1.4,3.1,3.1,3.1l20.3,0c1.7,0,3.1-1.4,3.1-3.1l0-16.4c0-1.7-1.4-3.1-3.1-3.1l-20.3,0C159.3,66.3,157.9,67.7,157.9,69.4z
			 M176.3,72.2l0,10.9c0,0.9-0.7,1.6-1.6,1.6c-0.9,0-1.6-0.7-1.6-1.6l0-10.9c0-0.9,0.7-1.6,1.6-1.6
			C175.6,70.6,176.3,71.3,176.3,72.2z M169.2,72.2l0,10.9c0,0.9-0.7,1.6-1.6,1.6s-1.6-0.7-1.6-1.6V72.2c0-0.9,0.7-1.6,1.6-1.6
			S169.2,71.3,169.2,72.2z M269.2,84.3c3.7,0,6.6-3,6.6-6.6c0-3.7-3-6.6-6.6-6.6L186,71l0,13.3L269.2,84.3z M29.4,36.7
			c-3.7,0-6.6,3-6.6,6.6c0,3.7,3,6.6,6.6,6.6l87.9,0l0-13.3L29.4,36.7z M118.9,35.1l0,16.4c0,1.7,1.4,3.1,3.1,3.1l20.3,0
			c1.7,0,3.1-1.4,3.1-3.1l0-16.4c0-1.7-1.4-3.1-3.1-3.1L122,32C120.3,32,118.9,33.4,118.9,35.1z M137.3,37.9l0,10.9
			c0,0.9-0.7,1.6-1.6,1.6c-0.9,0-1.6-0.7-1.6-1.6V37.9c0-0.9,0.7-1.6,1.6-1.6C136.6,36.3,137.3,37,137.3,37.9z M130.2,37.9v10.9
			c0,0.9-0.7,1.6-1.6,1.6c-0.9,0-1.6-0.7-1.6-1.6l0-10.9c0-0.9,0.7-1.6,1.6-1.6C129.5,36.3,130.2,37,130.2,37.9z M271.2,49.9
			c3.7,0,6.6-3,6.6-6.6c0-3.7-3-6.6-6.6-6.6l-124.2,0v13.3L271.2,49.9z M268.2,118.6c3.7,0,6.6-3,6.6-6.6s-3-6.6-6.6-6.6l-121.2,0
			l0,13.3L268.2,118.6z M118.9,103.8l0,16.4c0,1.7,1.4,3.1,3.1,3.1l20.3,0c1.7,0,3.1-1.4,3.1-3.1l0-16.4c0-1.7-1.4-3.1-3.1-3.1
			l-20.3,0C120.3,100.6,118.9,102,118.9,103.8z M137.3,106.5l0,10.9c0,0.9-0.7,1.6-1.6,1.6c-0.9,0-1.6-0.7-1.6-1.6l0-10.9
			c0-0.9,0.7-1.6,1.6-1.6C136.6,104.9,137.3,105.6,137.3,106.5z M130.2,106.5l0,10.9c0,0.9-0.7,1.6-1.6,1.6c-0.9,0-1.6-0.7-1.6-1.6
			l0-10.9c0-0.9,0.7-1.6,1.6-1.6C129.5,104.9,130.2,105.6,130.2,106.5z M29.4,105.3c-3.7,0-6.6,3-6.6,6.6c0,3.7,3,6.6,6.6,6.6
			l87.9,0l0-13.3L29.4,105.3z"/>
	</g>
</g>
</svg>
