<?xml version="1.0" encoding="utf-8"?>
<!-- Generator: Adobe Illustrator 23.0.2, SVG Export Plug-In . SVG Version: 6.00 Build 0)  -->
<svg version="1.1" id="Layer_1" xmlns="http://www.w3.org/2000/svg" xmlns:xlink="http://www.w3.org/1999/xlink" x="0px" y="0px"
	 viewBox="0 0 300 150" style="enable-background:new 0 0 300 150;" xml:space="preserve">
<style type="text/css">
	.st0{fill:#FEFEFE;}
	.st1{fill:url(#SVGID_1_);}
	.st2{fill:url(#SVGID_2_);}
	.st3{fill:url(#SVGID_3_);}
	.st4{fill:url(#SVGID_4_);}
	.st5{fill:url(#SVGID_5_);}
	.st6{fill:url(#SVGID_6_);}
	.st7{fill:url(#SVGID_7_);}
	.st8{fill:url(#SVGID_8_);}
</style>
<g>
	<path class="st0" d="M151.5,130.5c-17,0-34,0-51.1,0c-0.7,0-0.8-0.1-0.8-0.8c0-34.1,0-68.2,0-102.3c0-0.8,0.2-0.9,0.9-0.9
		c34.1,0,68.1,0,102.2,0c0.7,0,0.9,0.1,0.9,0.9c0,34.1,0,68.1,0,102.2c0,0.8-0.2,0.9-1,0.9C185.6,130.5,168.5,130.5,151.5,130.5z
		 M148.3,42.9c0,2.5,0,4.9,0,7.4c0,2.3,0,2.2,2.2,2.3c0.8,0,0.9-0.3,0.9-1c0-2.9,0-5.8,0-8.7c6.5,0,13,0,19.5,0c0,3,0,5.9,0,8.9
		c0,0.5,0.1,0.7,0.7,0.8c1.9,0.1,3.5,0.9,4.6,2.5c0.4,0.5,0.8,0.7,1.4,0.7c5,0,10.1,0,15.1,0c0.7,0,0.9,0.2,0.9,0.8
		c0,2.7,0,5.4,0,8.1c0,0.8-0.3,0.9-1,0.9c-4.4,0-8.7,0-13.1,0c-2.1,0-2.1,0-2.1,2.2c0,0.9,0.3,1,1,1c4.7,0,9.5,0,14.2,0
		c0.7,0,1,0.1,1,0.9c-0.1,2.6,0,5.3,0,7.9c0,0.8-0.1,1.1-1,1.1c-4.4,0-8.7,0-13.1,0c-2.1,0-2.1,0-2.1,2.2c0,0.8,0.3,1,1,1
		c4.7,0,9.5,0,14.2,0c0.7,0,1,0.1,1,0.9c-0.1,2.7,0,5.3,0,8c0,0.7-0.2,0.9-0.9,0.9c-4.4,0-8.7,0-13.1,0c-2.2,0-2.2,0-2.3,2.3
		c0,0.8,0.2,1,1,1c4.9,0,9.7,0,14.6,0c2.7,0,3.9-1.2,3.9-3.9c0-9.1,0-18.2,0-27.4c0-6.9,0-13.8,0-20.7c0-2.6,0-5.2,0-7.8
		c0-3.3-1.8-5.2-5.1-5.2c-14.2,0-28.4,0-42.6,0c-6.3,0-12.6,0-18.9,0c-2.5,0-4.6,1.8-4.6,4.3c-0.1,2.9,0,5.8,0,8.7
		c0,2.5,0,4.9,0,7.4c0,2.4,0,2.4,2.4,2.4c0.7,0,0.8-0.2,0.8-0.8c0-3,0-5.9,0-8.9C135.3,43,141.8,42.9,148.3,42.9z M102.9,68.9
		c0,0.1,0,0.3,0,0.4c0,16,0,31.9,0,47.9c0,2.3,1.3,3.6,3.6,3.6c4.2,0,8.4,0,12.7,0c4,0,8,0,12.1,0c0.3,0,0.8,0.2,0.9-0.5
		c0.3-2.5,0.2-2.8-2.4-2.8c0,0-0.1,0-0.1,0c-0.7,0.1-0.9-0.2-0.9-0.9c0-2.5,0-5,0-7.5c0-1.6-0.2-1.4,1.4-1.4c2.1,0,2.1,0,2.9-2
		c0.2-0.4,0.4-0.7,0.4-1.2c-1.3,0-2.6,0-4,0c-0.7,0-0.9-0.2-0.9-0.9c0-2.6,0.1-5.3,0-7.9c0-0.9,0.3-1.1,1.2-1.1c5.4,0,10.7,0,16.1,0
		c2.3,0,2.4,0,2.3,2.3c0,0.7,0.1,1,0.9,1c2.2,0,2.3,0,2.2-2.2c0-0.8,0.2-1.1,1.1-1.1c5.8,0,11.6,0,17.4,0c0.8,0,1.1,0.2,1.1,1
		c-0.1,2.3,0,2.2,2.3,2.3c0.8,0,0.9-0.2,0.9-0.9c0-5.1,0-10.3,0-15.4c0-4.3,0-8.6,0-12.9c0-2.7,0-5.3,0-8c0-3.2-1.8-5-5-5
		c-9.9,0-19.7,0-29.6,0c-10.7,0-21.5,0-32.2,0c-2.4,0-4.5,1.9-4.5,4.2C102.8,63,102.9,65.9,102.9,68.9z M177.5,101.3
		c-0.1,0.1-0.1,0.2-0.2,0.3c0.4,0.3,0.8,0.6,1.1,0.9c1.2,1.3,2.2,2.7,2.6,4.5c0.1,0.7,0.4,0.8,1.1,0.8c2.4,0,4.9,0,7.3,0
		c2.7,0,4.2,1.5,4.2,4.2c0,1.5,0,3,0,4.5c0,2.5-1.8,4.4-4.3,4.4c-6.9,0-13.8,0-20.7,0c-2.6,0-4.2-1.7-4.2-4.2c0-1.6,0-3.2,0-4.8
		c0-0.5-0.1-0.7-0.7-0.7c-1.7,0-3.4,0-5.2,0c-0.5,0-0.7,0.2-0.7,0.7c0,1.5,0,3,0,4.5c0,6.4,4.5,11,10.9,11c6.9,0,13.8,0,20.7,0
		c4.8,0,9.4-3.8,10.4-8.6c0.4-2.3,0.2-4.6,0.2-6.9c0-5.1-3.8-9.7-8.8-10.3C186.7,100.9,182.1,101.4,177.5,101.3z M158,127.2
		c-0.2-0.2-0.2-0.3-0.3-0.4c-1.6-1.6-3-3.3-3.5-5.6c-0.1-0.5-0.5-0.5-0.8-0.5c-2.4,0-4.8,0-7.2,0c-2.8,0-4.5-1.7-4.5-4.5
		c0-1.4,0-2.8,0-4.2c0-2.2,1.8-4.2,4-4.2c7.1,0,14.2,0,21.4,0c2.2,0,3.9,1.9,3.9,4c0,1.6,0,3.2,0,4.9c0,0.7,0.2,0.8,0.9,0.8
		c1.6,0,3.2,0,4.8,0c0.7,0,0.9-0.1,0.9-0.9c-0.1-1.6,0-3.2,0-4.8c0-5.6-4.5-10.5-10.1-10.6c-7.3-0.1-14.7-0.1-22,0
		c-4.6,0-8.7,3.5-9.6,8c-0.6,2.6-0.3,5.3-0.2,8c0.1,5,4.2,9.2,9.1,9.8c1.3,0.2,2.6,0.1,3.9,0.1C151.7,127.2,154.8,127.2,158,127.2z"
		/>
	<linearGradient id="SVGID_1_" gradientUnits="userSpaceOnUse" x1="102.8467" y1="94.8235" x2="174.1991" y2="94.8235">
		<stop  offset="9.590021e-07" style="stop-color:#1DCB8B"/>
		<stop  offset="1" style="stop-color:#000000"/>
	</linearGradient>
	<path class="st1" d="M174.1,68.9c0,4.3,0,8.6,0,12.9c0,5.1,0,10.3,0,15.4c0,0.8-0.2,1-0.9,0.9c-2.3,0-2.3,0-2.3-2.3
		c0-0.9-0.2-1.1-1.1-1c-5.8,0-11.6,0-17.4,0c-0.8,0-1.1,0.2-1.1,1.1c0.1,2.2,0,2.2-2.2,2.2c-0.8,0-0.9-0.3-0.9-1
		c0-2.3,0-2.3-2.3-2.3c-5.4,0-10.7,0-16.1,0c-0.9,0-1.2,0.2-1.2,1.1c0.1,2.6,0,5.3,0,7.9c0,0.7,0.2,0.9,0.9,0.9c1.3,0,2.6,0,4,0
		c0,0.5-0.3,0.8-0.4,1.2c-0.8,2-0.8,1.9-2.9,2c-1.6,0-1.4-0.2-1.4,1.4c0,2.5,0,5,0,7.5c0,0.7,0.2,1,0.9,0.9c0,0,0.1,0,0.1,0
		c2.5,0,2.7,0.2,2.4,2.8c-0.1,0.7-0.6,0.5-0.9,0.5c-4,0-8,0-12.1,0c-4.2,0-8.4,0-12.7,0c-2.3,0-3.6-1.3-3.6-3.6c0-16,0-31.9,0-47.9
		c0-0.1,0-0.3,0-0.4c1.1,0,2.2,0,3.2,0c0,3,0,6,0,9c0,0.6,0.2,0.8,0.8,0.8c6,0,11.9,0,17.9,0c0.7,0,0.8-0.3,0.8-0.9c0-3,0-5.9,0-8.9
		c1.1,0,2.1,0,3.2,0c0,3,0,5.9,0,8.9c0,0.6,0.2,0.9,0.9,0.9c6,0,11.9,0,17.9,0c0.6,0,0.8-0.1,0.8-0.8c0-3,0-6,0-9c1.1,0,2.1,0,3.2,0
		c0,3,0,6,0,9c0,0.6,0.2,0.8,0.8,0.8c6,0,11.9,0,17.9,0c0.6,0,0.8-0.1,0.8-0.8c0-3,0-6,0-9C172,68.9,173.1,68.9,174.1,68.9z
		 M115.8,91.6c3,0,5.9,0,8.9,0c0.7,0,1-0.1,0.9-0.9c0-2.6,0-5.3,0-7.9c0-0.8-0.2-1.1-1-1.1c-5.9,0-11.7,0-17.6,0
		c-0.7,0-0.9,0.2-0.9,0.9c0,2.7,0,5.4,0,8.1c0,0.7,0.2,0.9,0.9,0.9C109.9,91.6,112.9,91.6,115.8,91.6z M138.6,81.8
		C138.6,81.8,138.6,81.8,138.6,81.8c-3,0-6,0-9,0c-0.6,0-0.9,0.1-0.9,0.8c0,2.7,0,5.5,0,8.2c0,0.7,0.2,0.8,0.9,0.8
		c5.9,0,11.8,0,17.7,0c0.8,0,1-0.3,1-1.1c0-2.7,0-5.3,0-8c0-0.7-0.3-0.8-0.9-0.8C144.5,81.8,141.6,81.8,138.6,81.8z M161.1,91.6
		C161.1,91.6,161.1,91.6,161.1,91.6c3,0,6,0,9,0c0.7,0,0.8-0.2,0.8-0.9c0-2.7,0-5.5,0-8.2c0-0.6-0.1-0.8-0.8-0.8c-6,0-11.9,0-17.9,0
		c-0.7,0-0.9,0.2-0.9,0.9c0,2.7,0,5.4,0,8.1c0,0.7,0.2,0.9,0.9,0.9C155.2,91.6,158.2,91.6,161.1,91.6z M115.8,94.8
		C115.8,94.8,115.8,94.7,115.8,94.8c-2.9,0-5.9,0-8.8,0c-0.7,0-1,0.1-0.9,0.9c0,2.7,0,5.5,0,8.2c0,0.6,0.1,0.8,0.8,0.8
		c6,0,11.9,0,17.9,0c0.7,0,0.9-0.2,0.9-0.9c0-2.7,0-5.4,0-8.1c0-0.7-0.2-0.9-0.9-0.9C121.8,94.8,118.8,94.8,115.8,94.8z
		 M115.8,107.7c-2.9,0-5.9,0-8.8,0c-0.6,0-0.9,0-0.9,0.8c0,2.7,0,5.5,0,8.2c0,0.7,0.2,0.8,0.9,0.8c5.9,0,11.9,0,17.8,0
		c0.6,0,0.9-0.1,0.9-0.8c0-2.7,0-5.4,0-8.1c0-0.7-0.3-0.9-0.9-0.9C121.7,107.7,118.8,107.7,115.8,107.7z"/>
	<linearGradient id="SVGID_2_" gradientUnits="userSpaceOnUse" x1="102.8414" y1="62.3925" x2="174.1789" y2="62.3925">
		<stop  offset="9.590021e-07" style="stop-color:#1DCB8B"/>
		<stop  offset="1" style="stop-color:#000000"/>
	</linearGradient>
	<path class="st2" d="M151.5,68.9c-1.1,0-2.1,0-3.2,0c-6.5,0-13,0-19.5,0c-1.1,0-2.1,0-3.2,0c-6.5,0-13,0-19.5,0c-1.1,0-2.2,0-3.2,0
		c0-2.9-0.1-5.9,0-8.8c0.1-2.3,2.2-4.2,4.5-4.2c10.7,0,21.5,0,32.2,0c9.9,0,19.7,0,29.6,0c3.1,0,5,1.8,5,5c0,2.7,0,5.3,0,8
		c-1.1,0-2.2,0-3.2,0C164.4,68.9,157.9,68.9,151.5,68.9z"/>
	<linearGradient id="SVGID_3_" gradientUnits="userSpaceOnUse" x1="125.5428" y1="36.4542" x2="196.8834" y2="36.4542">
		<stop  offset="9.590021e-07" style="stop-color:#1DCB8B"/>
		<stop  offset="1" style="stop-color:#000000"/>
	</linearGradient>
	<path class="st3" d="M125.6,42.9c0-2.9-0.1-5.8,0-8.7c0.1-2.4,2.1-4.3,4.6-4.3c6.3,0,12.6,0,18.9,0c14.2,0,28.4,0,42.6,0
		c3.3,0,5.1,1.8,5.1,5.2c0,2.6,0,5.2,0,7.8c-1.1,0-2.2,0-3.2,0c-6.5,0-13,0-19.5,0c-1.1,0-2.1,0-3.2,0c-6.5,0-13,0-19.5,0
		c-1.1,0-2.1,0-3.2,0c-6.5,0-13,0-19.5,0C127.7,42.9,126.7,42.9,125.6,42.9z"/>
	<linearGradient id="SVGID_4_" gradientUnits="userSpaceOnUse" x1="157.9512" y1="114.2288" x2="200.1906" y2="114.2288">
		<stop  offset="1.092197e-06" style="stop-color:#000000"/>
		<stop  offset="1" style="stop-color:#1DCB8B"/>
	</linearGradient>
	<path class="st4" d="M177.5,101.3c4.6,0.1,9.2-0.3,13.7,0.2c5,0.6,8.8,5.3,8.8,10.3c0,2.3,0.3,4.6-0.2,6.9
		c-0.9,4.7-5.5,8.5-10.4,8.6c-6.9,0-13.8,0-20.7,0c-6.4,0-10.9-4.6-10.9-11c0-1.5,0-3,0-4.5c0-0.5,0.2-0.7,0.7-0.7
		c1.7,0,3.4,0,5.2,0c0.6,0,0.7,0.2,0.7,0.7c0,1.6,0,3.2,0,4.8c0,2.6,1.6,4.2,4.2,4.2c6.9,0,13.8,0,20.7,0c2.5,0,4.3-1.8,4.3-4.4
		c0-1.5,0-3,0-4.5c0-2.7-1.5-4.2-4.2-4.2c-2.4,0-4.9,0-7.3,0c-0.7,0-0.9-0.2-1.1-0.8c-0.4-1.8-1.4-3.2-2.6-4.5
		c-0.3-0.3-0.7-0.6-1.1-0.9C177.4,101.5,177.5,101.4,177.5,101.3z"/>
	<linearGradient id="SVGID_5_" gradientUnits="userSpaceOnUse" x1="135.3304" y1="114.2261" x2="177.4495" y2="114.2261">
		<stop  offset="1.092197e-06" style="stop-color:#000000"/>
		<stop  offset="1" style="stop-color:#1F8C64"/>
	</linearGradient>
	<path class="st5" d="M158,127.2c-3.3,0-6.4,0-9.5,0c-1.3,0-2.6,0-3.9-0.1c-4.9-0.6-9-4.8-9.1-9.8c-0.1-2.7-0.4-5.3,0.2-8
		c0.9-4.5,5-7.9,9.6-8c7.3-0.1,14.7-0.1,22,0c5.6,0.1,10.1,4.9,10.1,10.6c0,1.6,0,3.2,0,4.8c0,0.7-0.2,0.9-0.9,0.9
		c-1.6-0.1-3.2,0-4.8,0c-0.6,0-0.9-0.1-0.9-0.8c0.1-1.6,0-3.2,0-4.9c0-2.1-1.7-4-3.9-4c-7.1,0-14.2-0.1-21.4,0c-2.2,0-4,2-4,4.2
		c0,1.4,0,2.8,0,4.2c0,2.8,1.7,4.5,4.5,4.5c2.4,0,4.8,0,7.2,0c0.4,0,0.7,0,0.8,0.5c0.5,2.3,1.9,4,3.5,5.6
		C157.8,126.9,157.9,127,158,127.2z"/>
	<linearGradient id="SVGID_6_" gradientUnits="userSpaceOnUse" x1="170.9751" y1="68.8785" x2="196.8826" y2="68.8785">
		<stop  offset="9.590021e-07" style="stop-color:#206C50"/>
		<stop  offset="1" style="stop-color:#000000"/>
	</linearGradient>
	<path class="st6" d="M193.6,43c1.1,0,2.2,0,3.2,0c0,6.9,0,13.8,0,20.7c0,9.1,0,18.2,0,27.4c0,2.6-1.2,3.9-3.9,3.9
		c-4.9,0-9.7,0-14.6,0c-0.8,0-1-0.2-1-1c0.1-2.2,0-2.3,2.3-2.3c4.4,0,8.7,0,13.1,0c0.7,0,0.9-0.1,0.9-0.9c0-2.7-0.1-5.3,0-8
		c0-0.8-0.2-0.9-1-0.9c-4.7,0-9.5,0-14.2,0c-0.8,0-1.1-0.1-1-1c0.1-2.2,0-2.2,2.1-2.2c4.4,0,8.7,0,13.1,0c0.8,0,1-0.3,1-1.1
		c0-2.6,0-5.3,0-7.9c0-0.8-0.2-0.9-1-0.9c-4.7,0-9.5,0-14.2,0c-0.7,0-1.1-0.1-1-1c0.1-2.2,0-2.2,2.1-2.2c4.4,0,8.7,0,13.1,0
		c0.7,0,1-0.1,1-0.9c-0.1-2.7,0-5.4,0-8.1c0-0.7-0.2-0.9-0.9-0.8c-5,0-10.1,0-15.1,0c-0.6,0-1-0.2-1.4-0.7c-1.1-1.6-2.7-2.4-4.6-2.5
		c-0.6,0-0.7-0.2-0.7-0.8c0-3,0-5.9,0-8.9c1.1,0,2.1,0,3.2,0c0,2.9,0,5.9,0,8.8c0,0.8,0.3,1,1,1c5.9,0,11.7,0,17.6,0
		c0.7,0,0.9-0.2,0.9-0.9C193.6,48.9,193.6,45.9,193.6,43z"/>
	<linearGradient id="SVGID_7_" gradientUnits="userSpaceOnUse" x1="125.5496" y1="47.8035" x2="128.8031" y2="47.8035">
		<stop  offset="9.590021e-07" style="stop-color:#1DCB8B"/>
		<stop  offset="1" style="stop-color:#1DC386"/>
	</linearGradient>
	<path class="st7" d="M125.6,42.9c1.1,0,2.1,0,3.2,0c0,3,0,5.9,0,8.9c0,0.7-0.2,0.8-0.8,0.8c-2.4,0-2.4,0-2.4-2.4
		C125.5,47.8,125.6,45.4,125.6,42.9z"/>
	<linearGradient id="SVGID_8_" gradientUnits="userSpaceOnUse" x1="148.2588" y1="47.7879" x2="151.4502" y2="47.7879">
		<stop  offset="9.590021e-07" style="stop-color:#1F966A"/>
		<stop  offset="1" style="stop-color:#1F8C64"/>
	</linearGradient>
	<path class="st8" d="M148.3,42.9c1.1,0,2.1,0,3.2,0c0,2.9,0,5.8,0,8.7c0,0.7-0.1,1-0.9,1c-2.3-0.1-2.2,0-2.2-2.3
		C148.3,47.9,148.3,45.4,148.3,42.9z"/>
	<path class="st0" d="M106.1,68.9c6.5,0,13,0,19.5,0c0,3,0,5.9,0,8.9c0,0.6-0.1,0.9-0.8,0.9c-6,0-11.9,0-17.9,0
		c-0.6,0-0.8-0.1-0.8-0.8C106.1,74.9,106.1,71.9,106.1,68.9z"/>
	<path class="st0" d="M128.8,68.9c6.5,0,13,0,19.5,0c0,3,0,6,0,9c0,0.6-0.2,0.8-0.8,0.8c-6,0-11.9,0-17.9,0c-0.7,0-0.9-0.2-0.9-0.9
		C128.7,74.8,128.7,71.8,128.8,68.9z"/>
	<path class="st0" d="M151.5,68.9c6.5,0,13,0,19.5,0c0,3,0,6,0,9c0,0.6-0.2,0.8-0.8,0.8c-6,0-11.9,0-17.9,0c-0.6,0-0.8-0.2-0.8-0.8
		C151.4,74.9,151.4,71.9,151.5,68.9z"/>
	<path class="st0" d="M115.8,91.6c-2.9,0-5.9,0-8.8,0c-0.7,0-0.9-0.2-0.9-0.9c0-2.7,0-5.4,0-8.1c0-0.7,0.2-0.9,0.9-0.9
		c5.9,0,11.7,0,17.6,0c0.9,0,1.1,0.3,1,1.1c0,2.6,0,5.3,0,7.9c0,0.7-0.3,0.9-0.9,0.9C121.7,91.6,118.8,91.6,115.8,91.6z"/>
	<path class="st0" d="M138.6,81.8c2.9,0,5.9,0,8.8,0c0.6,0,0.9,0.1,0.9,0.8c0,2.7,0,5.3,0,8c0,0.8-0.2,1.1-1,1.1
		c-5.9,0-11.8,0-17.7,0c-0.6,0-0.9-0.1-0.9-0.8c0-2.7,0-5.5,0-8.2c0-0.7,0.3-0.8,0.9-0.8C132.6,81.8,135.6,81.8,138.6,81.8
		C138.6,81.8,138.6,81.8,138.6,81.8z"/>
	<path class="st0" d="M161.1,91.6c-2.9,0-5.9,0-8.8,0c-0.7,0-0.9-0.2-0.9-0.9c0-2.7,0-5.4,0-8.1c0-0.7,0.2-0.9,0.9-0.9
		c6,0,11.9,0,17.9,0c0.7,0,0.8,0.2,0.8,0.8c0,2.7,0,5.5,0,8.2c0,0.6-0.2,0.9-0.8,0.9C167.1,91.6,164.1,91.6,161.1,91.6
		C161.1,91.6,161.1,91.6,161.1,91.6z"/>
	<path class="st0" d="M115.8,94.8c3,0,5.9,0,8.9,0c0.7,0,0.9,0.2,0.9,0.9c0,2.7,0,5.4,0,8.1c0,0.7-0.2,0.9-0.9,0.9
		c-6,0-11.9,0-17.9,0c-0.6,0-0.8-0.2-0.8-0.8c0-2.7,0-5.5,0-8.2c0-0.8,0.3-0.9,0.9-0.9C110,94.8,112.9,94.7,115.8,94.8
		C115.8,94.7,115.8,94.8,115.8,94.8z"/>
	<path class="st0" d="M115.8,107.7c3,0,5.9,0,8.9,0c0.7,0,0.9,0.2,0.9,0.9c0,2.7,0,5.4,0,8.1c0,0.7-0.2,0.8-0.9,0.8
		c-5.9,0-11.9,0-17.8,0c-0.6,0-0.9-0.1-0.9-0.8c0-2.7,0-5.5,0-8.2c0-0.8,0.3-0.8,0.9-0.8C109.9,107.7,112.9,107.7,115.8,107.7z"/>
	<path class="st0" d="M193.6,43c0,3,0,5.9,0,8.9c0,0.7-0.2,0.9-0.9,0.9c-5.9,0-11.7,0-17.6,0c-0.8,0-1.1-0.1-1-1
		c0.1-2.9,0-5.9,0-8.8C180.6,42.9,187.1,42.9,193.6,43z"/>
</g>
</svg>
